<svg width="14" height="14" viewBox="0 0 14 14" fill="none" xmlns="http://www.w3.org/2000/svg">
<g id="Group 1272628256">
<path id="Vector" d="M6.41667 12.8333C6.38312 11.9147 6.23295 11.0754 5.96935 10.3337C5.67075 9.49371 5.22431 8.77277 4.64236 8.19097C4.06041 7.60917 3.33962 7.16273 2.4996 6.86398C1.7579 6.60024 0.918741 6.45022 0 6.41667C0.918596 6.38312 1.7579 6.23295 2.4996 5.96935C3.33962 5.67075 4.06056 5.22431 4.64236 4.64236C5.22416 4.06041 5.67061 3.33962 5.96935 2.4996C6.23309 1.7579 6.38312 0.918741 6.41667 0C6.45021 0.918596 6.60039 1.7579 6.86398 2.4996C7.16258 3.33962 7.60903 4.06056 8.19097 4.64236C8.77292 5.22416 9.49371 5.67061 10.3337 5.96935C11.0754 6.23309 11.9146 6.38312 12.8333 6.41667C11.9147 6.45022 11.0754 6.60039 10.3337 6.86398C9.49371 7.16258 8.77277 7.60903 8.19097 8.19097C7.60917 8.77292 7.16273 9.49371 6.86398 10.3337C6.60039 11.0756 6.45021 11.9147 6.41667 12.8333Z" fill="white"/>
<path id="Vector_2" d="M11.0827 14C11.0674 13.5824 10.9992 13.2009 10.8794 12.8638C10.7436 12.4819 10.5407 12.1543 10.2762 11.8898C10.0117 11.6253 9.68403 11.4224 9.3022 11.2866C8.96506 11.1667 8.58363 11.0985 8.16602 11.0833C8.58356 11.068 8.96506 10.9998 9.3022 10.88C9.68403 10.7442 10.0117 10.5413 10.2762 10.2768C10.5406 10.0123 10.7436 9.68464 10.8794 9.30281C10.9992 8.96567 11.0674 8.58424 11.0827 8.16663C11.0979 8.58417 11.1662 8.96567 11.286 9.30281C11.4217 9.68464 11.6247 10.0123 11.8892 10.2768C12.1537 10.5412 12.4813 10.7442 12.8632 10.88C13.2003 10.9999 13.5817 11.068 13.9993 11.0833C13.5818 11.0985 13.2003 11.1668 12.8632 11.2866C12.4813 11.4223 12.1536 11.6253 11.8892 11.8898C11.6247 12.1543 11.4218 12.4819 11.286 12.8638C11.1662 13.201 11.0979 13.5824 11.0827 14Z" fill="white"/>
</g>
</svg>
