<svg width="67" height="12" viewBox="0 0 67 12" fill="none" xmlns="http://www.w3.org/2000/svg">
<g id="Group 2">
<rect id="Border" opacity="0.35" x="43.1725" y="0.834717" width="21" height="10.3333" rx="2.16667" fill="white" stroke="white"/>
<path id="Cap" opacity="0.4" d="M65.672 4.00134V8.00134C66.4767 7.66257 67 6.87448 67 6.00134C67 5.12821 66.4767 4.34012 65.672 4.00134Z" fill="white"/>
<rect id="Capacity" x="44.6725" y="2.33472" width="18" height="7.33333" rx="1.33333" fill="white"/>
<path id="Wifi-path" d="M30.0063 2.61651C32.231 2.61661 34.3707 3.47072 35.9831 5.00231C36.1045 5.12055 36.2985 5.11906 36.4181 4.99897L37.5787 3.82864C37.6393 3.76772 37.673 3.68521 37.6725 3.59936C37.672 3.51351 37.6373 3.43141 37.576 3.3712C33.3441 -0.681026 26.6678 -0.681026 22.4359 3.3712C22.3746 3.43136 22.3398 3.51345 22.3392 3.59929C22.3387 3.68514 22.3724 3.76768 22.4329 3.82864L23.5938 4.99897C23.7133 5.11924 23.9075 5.12074 24.0289 5.00231C25.6414 3.47062 27.7814 2.6165 30.0063 2.61651Z" fill="white"/>
<path id="Wifi-path_2" d="M30.0062 6.42405C31.2286 6.42397 32.4073 6.87793 33.3134 7.6977C33.4359 7.81405 33.629 7.81152 33.7484 7.69202L34.9077 6.52169C34.9688 6.4603 35.0026 6.37702 35.0017 6.29049C35.0009 6.20395 34.9653 6.12138 34.903 6.06125C32.1439 3.49684 27.8709 3.49684 25.1118 6.06125C25.0495 6.12138 25.0139 6.20399 25.0131 6.29056C25.0123 6.37712 25.0463 6.46039 25.1074 6.52169L26.2664 7.69202C26.3858 7.81152 26.5789 7.81405 26.7014 7.6977C27.6069 6.87847 28.7847 6.42455 30.0062 6.42405Z" fill="white"/>
<path id="Wifi-path_3" d="M32.2343 9.21716C32.2963 9.15636 32.3304 9.0727 32.3286 8.98592C32.3269 8.89914 32.2893 8.81694 32.2249 8.75872C30.9442 7.67645 29.0686 7.67645 27.7879 8.75872C27.7235 8.81689 27.6859 8.89907 27.684 8.98585C27.6822 9.07263 27.7163 9.15632 27.7782 9.21716L29.7839 11.2392C29.8427 11.2986 29.9228 11.332 30.0064 11.332C30.09 11.332 30.1702 11.2986 30.229 11.2392L32.2343 9.21716Z" fill="white"/>
<path id="Cellular-Connection-path" d="M1.33923 7.33472H2.33923C2.89152 7.33472 3.33923 7.78243 3.33923 8.33472V10.3347C3.33923 10.887 2.89152 11.3347 2.33923 11.3347H1.33923C0.786949 11.3347 0.339233 10.887 0.339233 10.3347V8.33472C0.339233 7.78243 0.786949 7.33472 1.33923 7.33472Z" fill="white"/>
<path id="Cellular-Connection-path_2" d="M6.00598 5.33472H7.00598C7.55827 5.33472 8.00598 5.78243 8.00598 6.33472V10.3347C8.00598 10.887 7.55827 11.3347 7.00598 11.3347H6.00598C5.4537 11.3347 5.00598 10.887 5.00598 10.3347V6.33472C5.00598 5.78243 5.4537 5.33472 6.00598 5.33472Z" fill="white"/>
<path id="Cellular-Connection-path_3" d="M10.6725 3.00134H11.6725C12.2248 3.00134 12.6725 3.44906 12.6725 4.00134V10.3347C12.6725 10.887 12.2248 11.3347 11.6725 11.3347H10.6725C10.1202 11.3347 9.67249 10.887 9.67249 10.3347V4.00134C9.67249 3.44906 10.1202 3.00134 10.6725 3.00134Z" fill="white"/>
<path id="Cellular-Connection-path_4" d="M15.3392 0.667969H16.3392C16.8915 0.667969 17.3392 1.11568 17.3392 1.66797V10.3346C17.3392 10.8869 16.8915 11.3346 16.3392 11.3346H15.3392C14.7869 11.3346 14.3392 10.8869 14.3392 10.3346V1.66797C14.3392 1.11568 14.7869 0.667969 15.3392 0.667969V0.667969Z" fill="white"/>
</g>
</svg>
