<svg width="32" height="30" viewBox="0 0 32 30" fill="none" xmlns="http://www.w3.org/2000/svg">
<g id="icon setting">
<g id="vuesax/bold/setting-2">
<g id="setting-2">
<path id="Vector" d="M25.7091 11.7796C23.5382 11.7796 22.6507 10.2201 23.7301 8.30725C24.3538 7.19854 23.982 5.78524 22.8906 5.15169L20.8156 3.94551C19.8681 3.37288 18.6447 3.71402 18.081 4.67653L17.949 4.90802C16.8696 6.82085 15.0945 6.82085 14.003 4.90802L13.8711 4.67653C13.3313 3.71402 12.1079 3.37288 11.1604 3.94551L9.08546 5.15169C7.994 5.78524 7.62219 7.21072 8.24588 8.31943C9.33733 10.2201 8.44978 11.7796 6.27886 11.7796C5.03148 11.7796 4 12.8152 4 14.0945V16.2388C4 17.5059 5.01949 18.5537 6.27886 18.5537C8.44978 18.5537 9.33733 20.1132 8.24588 22.026C7.62219 23.1347 7.994 24.548 9.08546 25.1816L11.1604 26.3877C12.1079 26.9604 13.3313 26.6192 13.8951 25.6567L14.027 25.4252C15.1064 23.5124 16.8816 23.5124 17.973 25.4252L18.1049 25.6567C18.6687 26.6192 19.8921 26.9604 20.8396 26.3877L22.9145 25.1816C24.006 24.548 24.3778 23.1225 23.7541 22.026C22.6627 20.1132 23.5502 18.5537 25.7211 18.5537C26.9685 18.5537 28 17.5181 28 16.2388V14.0945C27.988 12.8274 26.9685 11.7796 25.7091 11.7796ZM15.994 19.1263C13.8471 19.1263 12.096 17.3475 12.096 15.1666C12.096 12.9858 13.8471 11.2069 15.994 11.2069C18.1409 11.2069 19.8921 12.9858 19.8921 15.1666C19.8921 17.3475 18.1409 19.1263 15.994 19.1263Z" fill="white"/>
</g>
</g>
</g>
</svg>
